<?xml version="1.0" encoding="UTF-8"?>
<!DOCTYPE svg PUBLIC "-//W3C//DTD SVG 1.1//EN" "http://www.w3.org/Graphics/SVG/1.1/DTD/svg11.dtd">
<!-- Creator: CorelDRAW X7 -->
<svg xmlns="http://www.w3.org/2000/svg" xml:space="preserve" width="3px" height="3px" version="1.1" style="shape-rendering:geometricPrecision; text-rendering:geometricPrecision; image-rendering:optimizeQuality; fill-rule:evenodd; clip-rule:evenodd"
viewBox="0 0 7495 7495"
 xmlns:xlink="http://www.w3.org/1999/xlink">
 <defs>
  <style type="text/css">
   <![CDATA[
    .fil0 {fill:black}
   ]]>
  </style>
 </defs>
 <g id="Layer_x0020_1">
  <metadata id="CorelCorpID_0Corel-Layer"/>
  <path class="fil0" d="M2143 2817c42,0 76,34 76,76 0,42 -34,76 -76,76 -42,0 -76,-34 -76,-76 0,-42 34,-76 76,-76zm989 2878l-193 243c-145,182 -217,398 -217,614 0,216 72,431 217,613l114 144c-204,-40 -402,-97 -592,-170l-56 -71c-128,-160 -191,-350 -191,-540 0,-190 63,-380 191,-539l193 -244c94,-119 158,-252 191,-391 64,-1 122,-7 169,-18 127,-30 252,-86 365,-157 -5,182 -69,363 -191,516zm94 1641l-194 -245c-127,-160 -191,-350 -191,-539 0,-190 64,-380 191,-540l193 -243c144,-182 217,-398 217,-614 0,-20 -1,-40 -2,-60l0 0c20,-17 40,-33 58,-51 152,-138 257,-305 269,-457l3 -36 33 41c28,35 53,71 74,109 -48,237 -118,567 -193,891 -26,111 -53,222 -79,329 -37,146 -74,284 -110,405 -32,106 -65,210 -96,309 0,0 0,0 0,1 -89,280 -162,511 -173,700zm138 -2185c-5,4 -10,7 -15,10 5,-3 10,-6 15,-10zm771 -4521c30,-71 71,-140 121,-204l191 -239c161,32 319,75 472,127l-12 15c-144,182 -216,398 -216,613 0,216 72,432 216,614l194 243c60,76 106,159 138,246 -42,-59 -83,-98 -104,-116 -95,-265 -405,-114 -406,-113l-26 13 -6 28c0,1 -26,130 -63,257 -34,-129 -96,-254 -184,-365l-194 -243c-16,-22 -32,-43 -47,-65 18,-123 32,-212 35,-232 55,-167 52,-328 -35,-459 -26,-38 -51,-79 -74,-120l0 0zm179 -467l-150 189c-38,48 -71,98 -99,149 -75,-146 -135,-289 -171,-379 142,6 282,20 420,41zm-234 3753c-9,-52 -14,-105 -14,-157 0,-9 0,-18 0,-27 49,-105 87,-233 92,-359 27,-54 60,-105 98,-154l64 -80c-26,92 -71,237 -123,401 -37,118 -78,247 -117,376zm-123 -19c11,77 31,153 61,227 -45,155 -84,299 -108,413 -4,-6 -9,-12 -14,-19l-112 -140c14,-167 31,-315 63,-420 37,-9 74,-28 110,-61zm400 -995l-193 243c-10,12 -19,24 -28,36 -4,-14 -9,-28 -15,-42 9,-4 17,-9 25,-14 81,-51 122,-148 130,-264 7,-105 -15,-228 -59,-341 -18,-45 -40,-89 -65,-130 -39,-118 -3,-487 34,-782l171 215c125,157 188,343 191,529 -29,80 -62,186 -95,299 -18,64 -37,130 -54,194 -13,19 -27,38 -42,57zm2496 243c-145,182 -217,398 -217,614 0,216 72,432 217,613l193 244c66,82 115,173 146,268 -99,298 -235,579 -404,837 -37,-36 -78,-64 -123,-80l0 0 -2 -1 0 0c-28,-9 -58,-13 -91,-12 91,-154 136,-325 136,-496 0,-216 -72,-432 -217,-614l-193 -243c-127,-160 -191,-350 -191,-540 0,-190 64,-379 191,-539l193 -244c145,-181 217,-397 217,-613 0,-216 -72,-432 -217,-614l-193 -243c-115,-144 -178,-313 -189,-484 69,60 136,122 201,187 399,399 706,890 886,1437 -31,99 -81,194 -150,280l-193 243zm393 1562c-30,-57 -65,-113 -107,-165l-193 -244c-128,-159 -191,-349 -191,-539 0,-190 63,-380 191,-540l193 -243c44,-55 81,-113 111,-174 82,302 126,619 126,945l0 0c0,332 -45,654 -130,960zm-1886 -3741c0,216 72,432 217,613l193 244c127,160 191,349 191,539 0,190 -64,380 -191,540l-193 243c-145,182 -217,398 -217,614 0,216 72,432 217,613l193 244c127,159 191,349 191,539 0,190 -64,380 -191,540l-154 194c-95,7 -184,16 -240,35 -39,14 -104,40 -184,71 -51,20 -107,42 -166,65 -7,-20 -14,-45 -23,-74l191 -241c144,-181 216,-397 216,-613 0,-216 -72,-432 -216,-614l-194 -243c-1,-1 -2,-3 -3,-4 69,-398 164,-839 177,-887 12,-40 47,-165 85,-324 23,-101 48,-214 69,-330 55,-125 82,-258 82,-391 0,-216 -72,-432 -216,-614l-194 -243c-127,-160 -190,-350 -190,-540 0,-189 63,-379 190,-539l37 -46c143,55 283,119 417,191l0 0c-63,133 -94,275 -94,418zm416 4912l87 -109c144,-182 217,-398 217,-614 0,-216 -73,-432 -217,-613l-194 -244c-127,-159 -190,-349 -190,-539 0,-190 63,-380 190,-540l194 -243c144,-182 217,-398 217,-614 0,-216 -73,-431 -217,-613l-194 -243c-127,-160 -190,-350 -190,-540 0,-123 26,-245 79,-360 151,88 295,186 431,294 0,14 0,28 0,42 0,216 72,432 216,614l194 243c127,160 190,350 190,540 0,190 -63,380 -190,540l-194 243c-144,182 -216,397 -216,613 0,216 72,432 216,614l194 243c127,160 190,350 190,540 0,186 -61,372 -183,530 -148,51 -291,144 -336,174 -20,1 -37,3 -53,6 -15,3 -28,6 -40,10 -35,13 -113,20 -201,26zm-2029 -5878l0 0c1031,0 1968,422 2647,1101 679,679 1101,1616 1101,2646l0 0c0,1031 -422,1968 -1101,2647 -679,679 -1616,1101 -2647,1101l0 0c-1030,0 -1967,-422 -2646,-1101 -679,-679 -1101,-1616 -1101,-2647l0 0c0,-1030 422,-1967 1101,-2646 679,-679 1616,-1101 2646,-1101zm1259 7093c-11,17 -29,28 -50,28 -33,0 -60,-27 -60,-60 0,-17 7,-32 19,-43 5,-6 14,-17 27,-32 79,-91 288,-313 426,-313 80,0 302,2 505,10 155,-113 302,-238 437,-373 61,-61 120,-124 176,-189 -44,-65 -114,-107 -188,-133 -1,0 -1,0 -2,-1 -42,-14 -85,-23 -124,-28 -53,-7 -101,-6 -134,0 -9,1 -15,3 -20,5 -59,22 -176,29 -298,37 -121,7 -247,15 -305,35 -34,12 -100,38 -179,69 -72,28 -155,61 -240,93 -12,5 -25,9 -38,14 -34,13 -68,25 -102,37 -47,17 -94,33 -137,47 -47,15 -91,28 -128,37 -189,46 -479,320 -540,380 -1,1 -2,2 -3,3 -5,5 -8,8 -8,8l-2 -1c-8,5 -19,9 -30,9 -33,0 -60,-27 -60,-60 0,-11 3,-22 9,-31l-1 -1 6 -6c3,-3 6,-7 10,-9 72,-70 376,-355 591,-407 55,-13 126,-36 202,-62 48,-17 99,-35 151,-55 -10,-27 -21,-62 -34,-103 -3,-11 -6,-24 -9,-37 -49,-224 -60,-807 -65,-1096l-1 -20c0,-36 2,-82 7,-136 -44,3 -126,6 -207,-1 -33,-2 -57,-31 -54,-64 2,-33 31,-57 64,-54 93,8 186,1 211,-1 11,-87 27,-185 44,-288 1,-5 2,-11 3,-17 9,-53 18,-107 28,-160 59,-325 128,-650 151,-747 -62,7 -163,10 -248,-25 -31,-12 -45,-47 -33,-77 13,-31 47,-45 78,-33 99,41 235,10 235,10l2 -1c15,-57 35,-133 55,-219 2,-7 4,-15 5,-23 23,-97 46,-205 66,-314 11,-63 21,-126 28,-187 8,-59 -29,-386 -89,-381 -56,200 -164,399 -164,400l-13 23 -26 6c-166,41 -270,2 -331,-45 -17,54 -34,112 -52,173 -44,153 -89,320 -122,448 -25,95 -76,256 -134,443 -106,337 -239,759 -289,1008 -6,30 -12,63 -20,99 -12,63 -27,134 -43,210 -44,213 -100,471 -159,727 -7,27 -13,54 -19,80 -22,94 -45,186 -68,276 -35,138 -70,269 -104,384 -31,104 -61,199 -89,288 -3,8 -5,16 -8,23 -21,67 -41,132 -60,193 -59,193 -102,357 -108,490 133,15 267,23 403,23l0 0c721,0 1395,-213 1961,-580 -146,-3 -281,-4 -340,-4 -101,0 -304,232 -355,292l-7 9zm-3532 -2069c8,0 15,1 22,4 95,24 1087,274 1435,193 179,-42 354,-142 487,-264 131,-120 221,-258 231,-380l6 -75c16,-208 32,-400 68,-542l-1 4c-11,-1 -23,-3 -34,-4 -14,-2 -27,-3 -39,-4 -368,114 -467,-45 -575,-221 -19,-32 -39,-64 -60,-93 -124,-169 -618,-352 -619,-353 -21,-3 -34,-26 -34,-55 3,-32 14,-45 29,-53 0,-1 294,-140 559,-469 140,-175 273,-309 399,-387 137,-86 268,-107 391,-47 66,32 109,13 145,-3 48,-22 89,-40 135,-23 -3,-202 29,-501 60,-730 -104,144 -241,280 -392,388 -5,78 96,65 96,136 0,33 -26,59 -59,59 -15,0 -19,-1 -33,-9 -174,-93 -110,-244 -110,-244l20 -26c210,-148 393,-351 490,-553 81,-169 100,-335 19,-457 -163,-244 -296,-572 -344,-697 -6,0 -12,0 -19,0l0 0c-997,0 -1905,408 -2562,1066 -658,657 -1066,1565 -1066,2562l0 0c0,948 368,1815 969,2463 33,-94 78,-190 142,-280 44,-63 82,-119 118,-174 147,-224 278,-423 495,-526l0 0c-195,-41 -343,-79 -377,-87 -29,-4 -52,-29 -52,-60 0,-33 27,-59 60,-59zm2448 -2273c33,0 60,27 60,60 0,5 -1,10 -2,15 -5,27 -27,110 -113,185 27,10 46,21 63,31 28,16 46,27 135,-8 6,-3 12,-6 18,-9 45,-29 69,-93 74,-171 6,-89 -12,-193 -51,-290 -16,-42 -36,-81 -58,-117 -57,-90 -82,-79 -115,-64 -59,27 -129,58 -245,2 -83,-40 -176,-23 -278,41 -113,70 -237,195 -369,360 -155,193 -320,325 -438,405 209,-7 501,-72 741,-126 93,-21 178,-41 251,-54l0 -1c230,-49 264,-179 268,-203 2,-31 28,-56 59,-56zm-1082 -956c25,7 44,30 44,58 0,33 -26,59 -59,59 -9,0 -18,-2 -25,-5 -895,-200 -160,-831 -98,-883 11,-10 26,-17 42,-17 33,0 60,27 60,60 0,20 -11,38 -26,49 -53,44 -620,533 62,678l0 1zm1619 4864c-29,15 -65,3 -79,-26 -15,-29 -3,-65 26,-80 1,0 237,-122 496,225 19,26 14,63 -12,83 -27,20 -64,14 -83,-12 -200,-267 -348,-190 -348,-190zm-3278 -353l4 4c305,305 664,557 1061,739 -101,-161 -151,-341 -151,-521 0,-216 72,-432 217,-613l193 -244c78,-97 132,-206 162,-319l2 0c-174,-8 -380,-38 -571,-72l0 0c-320,39 -472,269 -652,541 -39,59 -79,121 -119,177 -70,100 -116,207 -146,308zm5383 -278c55,-67 107,-136 156,-207 -28,-32 -60,-56 -94,-68l-1 -1 -1 0c-39,-13 -90,-8 -144,7 -72,21 -151,60 -216,96 23,6 47,12 70,21 14,4 28,10 41,15 72,30 139,75 189,137zm-1903 -3641c21,31 84,89 236,60 34,-67 128,-261 160,-429 -6,-5 -9,-7 -9,-7l-21 -30c-36,-121 -165,-90 -220,-69 -17,78 -64,284 -120,410 -8,18 -17,40 -26,65zm311 3447c-32,-254 -41,-723 -46,-971l0 -20c-2,-83 17,-237 45,-414l130 163c127,160 190,350 190,540 0,190 -63,380 -190,539l-129 163zm1654 -81l0 0zm-2618 -2578c-65,12 -96,-6 -137,-30 -17,-10 -37,-22 -67,-30 -51,43 -114,88 -206,100 -73,9 -126,0 -192,-10 -27,-4 -56,-9 -89,-13l-1 0c-194,44 -414,91 -603,110l6 -1c150,74 319,172 391,271 24,34 45,68 65,101 84,136 160,259 448,167l18 -3c19,0 39,3 60,5 70,8 161,18 228,-102 56,-100 105,-238 110,-372 3,-67 -6,-134 -31,-193zm-1044 -1483c0,-1 -22,-171 263,-300 129,-59 243,-71 319,-57 35,6 63,18 84,33 29,20 46,47 49,79 2,26 -5,53 -24,78 -41,56 -149,134 -290,181 -102,34 -222,53 -349,38l-47 -5 -5 -47zm311 -192c-109,50 -157,97 -178,131 84,1 162,-14 231,-37 111,-37 194,-93 227,-133 -7,-4 -17,-7 -30,-10 -56,-10 -144,1 -250,49zm286 -41c0,-2 0,-1 0,0 0,0 0,0 0,0z"/>
 </g>
</svg>
