<?xml version="1.0" encoding="UTF-8"?>
<!DOCTYPE svg PUBLIC "-//W3C//DTD SVG 1.1//EN" "http://www.w3.org/Graphics/SVG/1.1/DTD/svg11.dtd">
<!-- Creator: CorelDRAW X7 -->
<svg xmlns="http://www.w3.org/2000/svg" xml:space="preserve" width="2px" height="2px" version="1.1" style="shape-rendering:geometricPrecision; text-rendering:geometricPrecision; image-rendering:optimizeQuality; fill-rule:evenodd; clip-rule:evenodd"
viewBox="0 0 14735 14735"
 xmlns:xlink="http://www.w3.org/1999/xlink">
 <defs>
  <style type="text/css">
   <![CDATA[
    .fil0 {fill:black;fill-rule:nonzero}
   ]]>
  </style>
 </defs>
 <g id="Layer_x0020_1">
  <metadata id="CorelCorpID_0Corel-Layer"/>
  <path class="fil0" d="M10701 1827c-32,56 -104,76 -160,43 -57,-32 -76,-104 -43,-161l330 -571c-471,-264 -974,-475 -1502,-627l-172 642c-16,63 -81,100 -144,83 -63,-16 -100,-81 -83,-144l172 -642c-518,-131 -1058,-204 -1613,-213l0 665c0,65 -53,118 -118,118 -65,0 -118,-53 -118,-118l0 -665c-555,9 -1096,82 -1614,213l172 642c17,63 -20,128 -83,144 -63,17 -127,-20 -144,-83l-172 -642c-528,152 -1031,363 -1502,627l330 571c33,57 14,129 -42,161 -57,33 -128,13 -161,-43l-330 -571c-467,281 -899,615 -1288,992l464 464c46,46 46,121 0,167 -46,46 -120,46 -166,0l-465 -465c-377,390 -711,822 -992,1288l572 331c56,32 75,104 43,160 -33,56 -105,76 -161,43l-572 -330c-264,470 -475,973 -627,1501l642 173c63,16 101,81 84,144 -17,62 -82,100 -144,83l-644 -172c-130,518 -204,1058 -213,1613l667 0c65,0 118,53 118,118 0,65 -53,118 -118,118l-667 0c9,555 82,1096 213,1614l644 -173c62,-16 127,21 144,84 17,63 -21,127 -84,144l-643 172c152,528 363,1032 626,1503l574 -332c56,-32 128,-13 161,43 32,56 13,128 -43,161l-573 331c281,467 614,899 992,1289l466 -466c46,-46 120,-46 166,0 46,46 46,120 0,166l-466 466c390,378 822,711 1289,993l331 -573c32,-57 104,-76 160,-44 56,33 76,104 43,161l-331 574c471,264 974,475 1502,627l173 -645c17,-62 81,-100 144,-83 63,17 100,81 83,144l-172 645c518,131 1058,204 1614,214l0 -669c0,-65 53,-118 118,-118 65,0 118,53 118,118l0 669c555,-10 1095,-83 1614,-214l-173 -645c-17,-63 20,-127 83,-144 63,-17 128,21 144,83l173 645c528,-152 1031,-363 1502,-627l-331 -574c-33,-56 -14,-128 43,-161 56,-32 128,-13 160,43l332 574c466,-282 898,-615 1288,-993l-466 -466c-46,-46 -46,-120 0,-166 46,-46 121,-46 167,0l466 466c377,-390 710,-822 992,-1289l-573 -331c-57,-33 -76,-105 -43,-161 32,-56 104,-75 160,-43l574 332c263,-471 475,-975 627,-1503l-644 -172c-63,-17 -100,-81 -83,-144 16,-63 81,-100 144,-84l644 173c130,-518 204,-1059 213,-1614l-667 0c-66,0 -118,-53 -118,-118 0,-65 52,-118 118,-118l666 0c-9,-555 -82,-1095 -213,-1613l-643 172c-63,17 -128,-21 -144,-83 -17,-63 20,-128 83,-145l643 -172c-152,-528 -364,-1031 -627,-1501l-573 330c-56,33 -128,13 -160,-43 -33,-56 -14,-128 43,-160l572 -331c-282,-466 -615,-898 -993,-1288l-464 465c-46,46 -121,46 -167,0 -46,-46 -46,-121 0,-167l465 -464c-390,-377 -822,-711 -1289,-992l-330 571zm317 -853c11,3 22,7 33,13 10,6 20,14 28,23 532,313 1023,690 1460,1122 14,6 26,14 37,26 11,11 20,23 26,37 432,437 810,928 1124,1462 8,7 15,16 21,26 5,10 10,20 12,31 621,1078 976,2326 976,3654l0 0c0,1328 -356,2577 -977,3656 -3,9 -7,17 -11,25 -5,9 -11,16 -17,23 -315,537 -696,1031 -1131,1471 -6,12 -13,22 -23,32 -9,9 -20,17 -31,23 -441,436 -936,817 -1474,1132 -6,6 -13,11 -20,15 -8,4 -15,8 -23,10 -1080,623 -2330,980 -3660,980l0 0c-1331,0 -2582,-357 -3662,-980 -7,-3 -14,-6 -21,-10 -7,-4 -14,-9 -20,-14 -538,-316 -1033,-697 -1474,-1133 -12,-6 -22,-14 -32,-23 -10,-10 -17,-21 -23,-32 -435,-440 -816,-934 -1130,-1471 -7,-7 -12,-14 -17,-23 -5,-8 -9,-16 -11,-25 -622,-1079 -978,-2328 -978,-3656l0 0c0,-1327 356,-2575 976,-3654 3,-11 7,-21 13,-31 6,-10 13,-19 21,-27 313,-533 691,-1024 1124,-1461 5,-14 14,-26 25,-37 11,-12 24,-20 37,-26 438,-432 928,-809 1461,-1122 8,-9 17,-17 28,-23 10,-6 21,-10 32,-13 539,-310 1121,-553 1733,-719 4,-2 7,-3 11,-4 4,-1 8,-2 12,-2 605,-162 1240,-249 1895,-249l0 0 3 0c653,0 1287,87 1891,249 4,0 8,1 12,2 4,1 8,2 11,4 613,166 1194,409 1733,719zm-3650 337l0 0c1665,0 3180,681 4277,1779 1098,1098 1780,2612 1780,4278l0 0c0,1665 -682,3180 -1780,4277 -1097,1098 -2612,1780 -4277,1780l0 0c-1666,0 -3180,-682 -4278,-1780 -1098,-1097 -1779,-2612 -1779,-4277l0 0c0,-1666 681,-3180 1779,-4278 1098,-1098 2612,-1779 4278,-1779zm0 236l0 0c-1601,0 -3056,654 -4111,1710 -1056,1055 -1710,2510 -1710,4111l0 0c0,1600 654,3056 1710,4111 1055,1055 2510,1710 4111,1710l0 0c1600,0 3056,-655 4111,-1710 1055,-1055 1710,-2511 1710,-4111l0 0c0,-1601 -655,-3056 -1710,-4111 -1055,-1056 -2511,-1710 -4111,-1710zm-386 3631l-2538 -1016 -428 1733 2966 -717zm-2829 -816l-1611 1516 1222 55 389 -1571zm-1757 1745l346 2257 939 -2200 -1285 -57zm440 2635l1596 982 -620 -3268 -976 2286zm1995 1227l2419 1487 0 -2821 -2419 1334zm2600 1797c-3,2 -6,4 -9,6l-1 0 -2 1 0 0 -3 1 0 0 -2 1c-14,6 -29,9 -44,10l0 0 -2 0 -1 0 -1 0 -1 0c-15,-1 -29,-4 -43,-10l-3 -1 0 0 -2 -1 -1 0 -2 -1 0 0c-4,-2 -7,-4 -10,-6l-4677 -2876 0 0c-29,-17 -50,-47 -55,-83l-430 -2806 0 0c-5,-37 7,-76 36,-103l2103 -1980 0 -1 1 0 2 -1 0 -1 1 -1 1 0 1 -1 1 -1 1 -1 1 -1 0 0 2 -1 0 -1 2 -1c1,-1 3,-2 5,-3l0 0 2 -1 1 -1 0 0 2 -1 0 0 2 -1c22,-13 48,-18 75,-13l1 0 1 0 0 0 2 0 2 1 1 0 1 0 2 0 1 1 2 0 0 0c5,2 10,3 15,6l2959 1184 2959 -1184c4,-3 9,-4 15,-6l0 0 2 0 1 -1 1 0 2 0 0 0 2 -1 2 0 0 0 2 0 0 0c27,-5 53,0 75,13l2 1 0 0 2 1 1 0 1 1 1 1 1 0c1,1 3,2 5,3l1 1 0 1 2 1 0 0 2 1 1 1 0 1 2 1 0 0 2 1 0 1 1 1 1 0 1 1 2103 1980c29,27 41,66 35,103l1 0 -430 2806c-6,36 -27,66 -55,83l0 0 -4678 2876zm-181 -3552l0 -2859 -3109 751 3109 2108zm236 -2859l0 2859 3108 -2108 -3108 -751zm0 3280l0 2821 2418 -1487 -2418 -1334zm2817 1089l1596 -982 -976 -2286 -620 3268zm1690 -1360l346 -2257 -1284 57 938 2200zm201 -2486l-1611 -1516 388 1571 1223 -55zm-1903 -1716l-2538 1016 2966 717 -428 -1733zm-6267 2148l658 3472 2461 -1356 -3119 -2116zm6029 3472l659 -3472 -3120 2116 2461 1356z"/>
 </g>
</svg>
