<?xml version="1.0" encoding="UTF-8"?>
<!DOCTYPE svg PUBLIC "-//W3C//DTD SVG 1.1//EN" "http://www.w3.org/Graphics/SVG/1.1/DTD/svg11.dtd">
<!-- Creator: CorelDRAW X7 -->
<svg xmlns="http://www.w3.org/2000/svg" xml:space="preserve" width="2px" height="2px" version="1.1" style="shape-rendering:geometricPrecision; text-rendering:geometricPrecision; image-rendering:optimizeQuality; fill-rule:evenodd; clip-rule:evenodd"
viewBox="0 0 16513 16514"
 xmlns:xlink="http://www.w3.org/1999/xlink">
 <defs>
  <style type="text/css">
   <![CDATA[
    .fil0 {fill:black;fill-rule:nonzero}
   ]]>
  </style>
 </defs>
 <g id="Layer_x0020_1">
  <metadata id="CorelCorpID_0Corel-Layer"/>
  <path class="fil0" d="M8257 0l0 0c2270,0 4335,929 5831,2425 1497,1497 2425,3561 2425,5832l0 0c0,2270 -928,4335 -2425,5831 -1496,1497 -3561,2426 -5831,2426l0 0c-2271,0 -4335,-929 -5832,-2426 -1496,-1496 -2425,-3561 -2425,-5831l0 0c0,-2271 929,-4335 2425,-5832 1497,-1496 3561,-2425 5832,-2425zm-2480 677c0,-6 -1,-11 -1,-16 -1205,396 -2285,1073 -3164,1951 -376,376 -715,789 -1011,1233l185 425c29,67 -2,145 -69,174 -67,29 -145,-2 -174,-69l-113 -261c-739,1210 -1166,2629 -1166,4143l0 0c0,2198 899,4196 2348,5644 1449,1449 3447,2348 5645,2348l0 0c2198,0 4196,-899 5644,-2348 1449,-1448 2348,-3446 2348,-5644l0 0c0,-1539 -441,-2980 -1203,-4204l-139 322c-29,67 -107,98 -174,69 -67,-29 -98,-107 -69,-174l210 -482c-287,-422 -613,-816 -973,-1176 -849,-850 -1888,-1510 -3045,-1911l-72 499c-11,72 -78,122 -150,111 -72,-10 -122,-77 -112,-149l76 -523c1,-7 2,-14 4,-21 -742,-230 -1530,-354 -2345,-354l0 0c-776,0 -1527,112 -2238,321 10,16 17,34 20,54l76 523c10,72 -40,139 -112,149 -73,11 -140,-39 -150,-111l-76 -523zm715 3100c11,72 -39,139 -111,150 -73,10 -140,-40 -150,-112l-76 -523c-10,-72 40,-140 112,-150 72,-10 139,40 150,112l75 523zm-189 -1308c11,73 -39,140 -111,150 -73,10 -140,-40 -150,-112l-76 -523c-10,-72 40,-139 112,-149 72,-11 139,39 150,111l75 523zm3158 7883c-10,73 -77,123 -150,112 -72,-10 -122,-77 -111,-149l75 -523c11,-73 78,-123 150,-112 72,10 122,77 112,149l-76 523zm189 -1307c-10,72 -77,122 -150,112 -72,-11 -122,-78 -111,-150l75 -523c11,-72 78,-122 150,-112 72,11 122,78 112,150l-76 523zm189 -1308c-10,73 -77,123 -150,112 -72,-10 -122,-77 -112,-149l76 -523c10,-73 78,-123 150,-112 72,10 122,77 112,149l-76 523zm189 -1307c-10,72 -78,122 -150,112 -72,-11 -122,-78 -112,-150l76 -523c10,-72 77,-122 150,-112 72,11 122,78 112,150l-76 523zm189 -1308c-11,72 -78,123 -150,112 -72,-10 -122,-77 -112,-150l76 -523c10,-72 77,-122 150,-111 72,10 122,77 111,149l-75 523zm189 -1307c-11,72 -78,122 -150,112 -72,-11 -122,-78 -112,-150l76 -523c10,-72 77,-122 149,-112 73,10 123,78 112,150l-75 523zm189 -1308c-11,72 -78,122 -150,112 -72,-10 -122,-77 -112,-150l76 -523c10,-72 77,-122 149,-111 73,10 123,77 112,149l-75 523zm-4080 12672c30,67 -1,145 -68,174 -67,29 -145,-2 -174,-69l-210 -485c-29,-67 2,-145 68,-174 67,-29 145,2 174,69l210 485zm-525 -1212c29,67 -2,145 -69,174 -67,29 -144,-2 -173,-69l-211 -485c-29,-67 2,-145 69,-174 67,-29 145,2 174,69l210 485zm-526 -1212c29,67 -1,144 -68,173 -67,29 -145,-1 -174,-68l-210 -485c-29,-67 1,-145 68,-174 67,-29 145,2 174,69l210 485zm-525 -1212c29,67 -2,144 -69,173 -67,29 -145,-1 -174,-68l-210 -485c-29,-67 2,-145 69,-174 67,-29 145,2 174,69l210 485zm-526 -1212c29,66 -1,144 -68,173 -67,29 -145,-1 -174,-68l-210 -485c-29,-67 1,-145 68,-174 67,-29 145,2 174,69l210 485zm-525 -1213c29,67 -2,145 -69,174 -67,29 -145,-2 -174,-68l-210 -485c-29,-67 2,-145 69,-174 67,-29 144,2 174,69l210 484zm-526 -1212c29,67 -2,145 -68,174 -67,29 -145,-2 -174,-69l-210 -484c-29,-67 1,-145 68,-174 67,-29 145,2 174,68l210 485zm-525 -1212c29,67 -2,145 -69,174 -67,29 -145,-2 -174,-69l-210 -484c-29,-67 2,-145 69,-174 67,-29 144,1 173,68l211 485zm-526 -1212c29,67 -2,145 -69,174 -66,29 -144,-2 -173,-69l-210 -485c-30,-66 1,-144 68,-173 67,-29 145,1 174,68l210 485zm7866 9802c-29,67 -107,98 -174,69 -67,-29 -97,-107 -68,-174l210 -485c29,-67 107,-98 174,-69 67,29 97,107 68,174l-210 485zm526 -1212c-29,67 -107,98 -174,69 -67,-29 -98,-107 -69,-174l210 -485c29,-67 107,-98 174,-69 67,29 98,107 69,174l-210 485zm525 -1212c-29,67 -107,97 -174,68 -67,-29 -97,-106 -68,-173l210 -485c29,-67 107,-98 174,-69 67,29 97,107 68,174l-210 485zm526 -1212c-29,67 -107,97 -174,68 -67,-29 -98,-106 -69,-173l210 -485c30,-67 107,-98 174,-69 67,29 98,107 69,174l-210 485zm525 -1212c-29,67 -107,97 -174,68 -66,-29 -97,-107 -68,-173l210 -485c29,-67 107,-98 174,-69 67,29 97,107 68,174l-210 485zm526 -1212c-29,66 -107,97 -174,68 -67,-29 -98,-107 -69,-174l211 -484c29,-67 106,-98 173,-69 67,29 98,107 69,174l-210 485zm525 -1213c-29,67 -107,98 -173,69 -67,-29 -98,-107 -69,-174l210 -485c29,-66 107,-97 174,-68 67,29 98,107 69,174l-211 484zm526 -1212c-29,67 -107,98 -174,69 -67,-29 -98,-107 -69,-174l211 -485c29,-67 106,-97 173,-68 67,29 98,107 69,174l-210 484zm525 -1212c-29,67 -106,98 -173,69 -67,-29 -98,-107 -69,-174l210 -485c29,-67 107,-97 174,-68 67,29 98,107 69,173l-211 485zm-8029 1552c136,0 246,-110 246,-246 0,-136 -110,-246 -246,-246 -136,0 -246,110 -246,246 0,136 110,246 246,246zm9818 -6l-5907 8860c133,-35 264,-73 393,-114l5561 -8341c-12,-136 -28,-271 -47,-405zm-9920 8860l-5906 -8860c-19,134 -35,269 -47,405l5560 8341c130,41 261,79 393,114zm2489 -1321l-987 0 238 -1288 1 -6 256 -377c84,-123 -10,-190 -177,-307 -299,-210 -1002,-704 -1405,-1678 -647,-1565 787,-4417 1660,-6152 88,-176 172,-343 226,-451 462,-934 479,-1737 397,-2280 237,482 414,1246 -10,2223 -617,1419 -70,1554 366,1484 -472,611 -1476,1973 -2005,3143 -186,410 -266,818 -266,1198 0,452 114,867 300,1202 189,341 454,600 753,735 150,69 309,105 471,105 540,0 946,-193 1210,-378 -400,998 -1268,1434 -1270,1435l-95 49 27 102c70,264 129,493 177,685 63,254 107,440 133,556zm-2384 -2498l732 2928c-20,39 -39,79 -57,122 -119,277 -198,630 -234,891 86,16 173,30 260,44 32,-239 104,-571 216,-832 86,-200 187,-351 292,-351l1485 0c103,0 197,147 276,342 105,259 170,590 198,830 87,-14 173,-29 260,-46 -33,-260 -102,-608 -213,-882 -34,-84 -72,-162 -115,-230l3328 -13311c-77,-53 -155,-105 -234,-156l-2473 9894 -149 -69c-1,2 -463,611 -1370,611 -57,0 -112,-6 -167,-17l0 -4363c669,-1032 1372,-1895 1375,-1899l-155 -204c-3,2 -1086,493 -431,-1016 828,-1907 -452,-3097 -455,-3100l-10 5c-39,-43 -102,-56 -156,-29 -65,33 -91,112 -58,177l9 20c18,175 51,709 -119,1292l0 -2560c-44,0 -89,-1 -133,-1 -44,0 -88,1 -131,1l0 3178c-135,229 -313,448 -549,638l-517 381c-133,-13 -469,-20 -659,308 -131,227 -93,429 -35,566 -140,39 -315,130 -406,351 -92,224 -25,420 51,553 -171,49 -394,168 -466,481 -89,387 165,614 297,732 1,1 2,0 4,-4 9,-19 26,-94 17,-44l-1 5 -3 25c-54,386 -103,752 -142,1101l-1753 -7013c-79,51 -156,103 -233,156l1919 7677c-24,523 -2,1007 98,1464 106,480 296,928 607,1354zm935 2652l-550 -2198c264,270 586,534 975,794l-226 1226 -1 4c-4,25 -6,48 -5,69 -70,16 -135,53 -193,105zm836 -6826l0 3844c-220,-119 -416,-325 -563,-589 -165,-297 -266,-667 -266,-1074 0,-345 73,-716 242,-1090 160,-354 366,-727 587,-1091zm1742 4247l-629 2518c-58,-34 -121,-53 -190,-53l-38 0c-2,-27 -6,-56 -14,-90 -27,-125 -73,-318 -135,-569 -42,-170 -93,-367 -152,-591 221,-133 783,-522 1158,-1215zm-3745 -4797l0 0zm1967 -2704c-893,1776 -2361,4695 -1668,6370 291,705 883,1433 1549,1823l-157 232c-1100,-747 -1613,-1518 -1808,-2407 -204,-931 -65,-2005 117,-3314 15,-85 -34,-128 -105,-193 -93,-82 -270,-241 -216,-477 62,-269 335,-301 416,-311 53,-6 84,-10 119,-57l0 0c62,-81 31,-123 -21,-190 -50,-66 -189,-248 -112,-434 82,-200 309,-215 365,-219 60,-3 94,-6 127,-77l1 -1c33,-72 13,-97 -22,-145 -32,-44 -169,-232 -46,-445 122,-211 374,-180 435,-172 42,5 66,9 110,-23l1 -1 561 -414 4 -3c618,-498 879,-1170 983,-1736 13,467 -73,1067 -408,1744 -85,170 -153,306 -225,450zm669 9958c-7,11 -4,6 2,-4 0,1 -1,2 -2,4zm-1027 -19c3,3 5,5 2,2 -3,-3 -3,-3 -2,-2zm-895 -9515c0,135 111,246 246,246 136,0 246,-111 246,-246 0,-136 -110,-246 -246,-246 -135,0 -246,110 -246,246zm-349 814c0,135 110,246 246,246 136,0 246,-111 246,-246 0,-136 -110,-246 -246,-246 -136,0 -246,110 -246,246z"/>
 </g>
</svg>
