<?xml version="1.0" encoding="UTF-8"?>
<!DOCTYPE svg PUBLIC "-//W3C//DTD SVG 1.1//EN" "http://www.w3.org/Graphics/SVG/1.1/DTD/svg11.dtd">
<!-- Creator: CorelDRAW X7 -->
<svg xmlns="http://www.w3.org/2000/svg" xml:space="preserve" width="2px" height="2px" version="1.1" style="shape-rendering:geometricPrecision; text-rendering:geometricPrecision; image-rendering:optimizeQuality; fill-rule:evenodd; clip-rule:evenodd"
viewBox="0 0 5074 5074"
 xmlns:xlink="http://www.w3.org/1999/xlink">
 <defs>
  <style type="text/css">
   <![CDATA[
    .fil0 {fill:black;fill-rule:nonzero}
   ]]>
  </style>
 </defs>
 <g id="Layer_x0020_1">
  <metadata id="CorelCorpID_0Corel-Layer"/>
  <g>
   <path class="fil0" d="M2537 0l0 0c698,0 1332,285 1792,745 460,460 745,1094 745,1792l0 0c0,698 -285,1332 -745,1792 -460,460 -1094,745 -1792,745l0 0c-698,0 -1332,-285 -1792,-745 -460,-460 -745,-1094 -745,-1792l0 0c0,-698 285,-1332 745,-1792 460,-460 1094,-745 1792,-745zm0 81l0 0c-675,0 -1289,276 -1734,722 -446,445 -722,1059 -722,1734l0 0c0,675 276,1289 722,1734 445,445 1059,722 1734,722l0 0c675,0 1289,-277 1734,-722 445,-445 722,-1059 722,-1734l0 0c0,-675 -277,-1289 -722,-1734 -445,-446 -1059,-722 -1734,-722zm-562 4846c30,-337 11,-574 1,-664 293,-48 354,-146 354,-147 12,-18 7,-43 -12,-56 -18,-12 -43,-6 -56,12 0,1 -44,73 -315,114 -379,-451 -361,-1026 -355,-1242 1,-25 2,-46 2,-56l0 -11c3,8 8,15 15,20l84 56c10,33 23,70 40,111l-102 43c-21,9 -31,33 -22,53 9,21 32,31 53,22l105 -44c43,85 87,154 130,205 57,69 114,109 163,120l9 2c-89,106 -165,225 -165,225 -12,19 -6,44 13,56 19,12 44,7 56,-12 0,-1 168,-266 278,-335 29,21 69,39 121,28 -35,62 -63,136 -81,221 -5,22 9,44 31,48 22,5 43,-9 48,-31 48,-229 179,-360 291,-434 3,-1 6,-3 9,-6 21,-13 40,-23 58,-33 32,-13 54,-24 54,-24l1 0c31,-13 53,-18 59,-20 13,-2 24,-11 30,-25l48 -125c4,-9 5,-19 2,-28l-54 -173c-4,-16 -17,-29 -33,-31 -43,-6 -173,-30 -285,-90 -27,-14 -53,-31 -76,-50l-4 -2c-29,-25 -54,-53 -71,-85 -15,-29 -23,-54 -26,-75 7,14 16,28 29,41 32,32 73,55 112,70 55,22 111,25 132,10l4 -3c28,-18 99,-65 104,-178 59,6 112,11 147,14 108,8 212,129 220,137l1 2c1,1 357,382 362,463 4,85 -54,260 -58,272l0 0 0 0 0 1c0,1 -132,418 -297,606 -54,61 -88,111 -109,153 -583,25 -595,-182 -596,-182 -2,-22 -21,-39 -44,-37 -22,2 -38,22 -36,44 0,1 19,275 649,257 -6,37 -4,69 -1,104 2,16 3,34 3,52 0,79 63,436 99,639 26,-7 53,-13 79,-20 -17,-95 -40,-223 -59,-339 553,-114 1047,-388 1431,-773 85,-85 165,-175 238,-271 48,-106 88,-217 119,-330 -117,197 -258,378 -419,539 -372,372 -849,637 -1383,748 -14,-90 -24,-164 -24,-193 0,-21 -1,-40 -3,-59 -6,-71 -11,-133 117,-279 173,-197 308,-620 313,-634 1,-2 16,-47 31,-104 224,-110 427,-256 601,-431 334,-333 564,-771 637,-1260 -22,-49 -46,-97 -71,-144 -46,523 -278,992 -628,1342 -151,151 -325,281 -515,382 5,-32 8,-62 6,-87 -2,-48 -75,-152 -157,-254 -6,-44 -76,-542 -76,-565 0,-7 -3,-59 -8,-130 149,-79 285,-179 403,-298 268,-268 446,-626 485,-1025 -27,-25 -55,-50 -83,-74 -22,404 -196,769 -464,1037 -103,103 -220,192 -348,264 -4,-59 -9,-121 -13,-180 -9,-98 -17,-184 -24,-217 -3,-46 -29,-512 -81,-717l0 1c180,-135 316,-323 387,-540 -26,-13 -53,-25 -80,-37 -62,196 -181,366 -339,491 -33,-64 -64,-105 -97,-130 -41,-31 -82,-37 -129,-27 -49,11 -95,43 -125,99 -23,44 -36,103 -31,178 2,19 3,41 5,67 -81,20 -165,31 -252,31 -454,0 -838,-298 -968,-709 -27,12 -54,24 -80,37 143,441 558,760 1048,760 88,0 174,-10 257,-30 4,73 8,157 11,238 6,129 10,251 10,307 0,67 -10,229 -19,354 -50,-78 -131,-149 -254,-120 -209,50 -221,87 -260,211l-2 8c-45,6 -139,22 -217,60l5 -2c-251,-78 -476,-215 -658,-397 -268,-268 -442,-633 -464,-1037 -28,24 -56,49 -83,74 39,399 217,757 485,1025 176,176 391,314 631,398 -8,9 -15,18 -21,28 -36,61 -55,106 -62,141 -2,11 -4,20 -4,29 -49,-7 -118,-4 -185,46 -54,41 -102,116 -137,202 -35,89 -57,190 -57,275 0,18 -1,34 -1,54 -1,30 -2,137 -3,157 0,0 0,1 0,0 -188,-101 -359,-228 -508,-378 -350,-350 -582,-819 -628,-1342 -25,47 -49,95 -71,144 73,489 303,927 637,1260 167,168 360,309 573,417l0 -6c13,286 83,704 380,1052 4,28 13,105 17,223 -508,-119 -961,-378 -1318,-734 -161,-161 -302,-342 -419,-539 31,113 71,224 119,330 73,96 153,186 238,271 373,373 849,643 1381,763l0 0c1,97 -3,213 -15,347 27,7 53,14 80,20zm1223 -4071c-1,-4 -2,-7 -3,-10 1,3 2,6 3,10zm-3 -11c-1,-3 -2,-7 -3,-10 1,3 2,7 3,10zm-6 -20c-1,-3 -2,-6 -3,-9 1,3 2,6 3,9zm-3 -9c-3,-9 -6,-17 -9,-23 3,6 6,14 9,23zm-12 -30c1,2 2,4 3,7l-3 -7zm15 39c1,3 2,7 3,10l-3 -10zm-513 3400c0,1 -54,477 45,761 28,-2 56,-5 84,-8 -103,-261 -49,-743 -49,-745 3,-22 -13,-42 -36,-44 -22,-3 -42,13 -44,36zm-258 62c-22,-1 -41,16 -42,39l-28 659c27,3 54,4 81,5l28 -661c1,-23 -17,-41 -39,-42zm-202 -1435c0,0 31,-27 114,-27 23,0 41,-18 41,-41 0,-22 -18,-40 -41,-40 -113,0 -167,47 -167,47 -17,15 -19,40 -5,57 15,17 41,19 58,4zm966 -349c-10,-13 -135,-155 -275,-166l-21 -2 -22 -220c3,-31 24,-295 30,-448 40,-6 144,-21 223,-15 23,2 42,-15 43,-38 2,-22 -15,-41 -37,-43 -78,-6 -176,7 -227,14 0,-57 -4,-176 -10,-303l-4 -81c5,1 9,0 14,-1 0,0 63,-17 126,-17 23,0 41,-18 41,-41 0,-22 -18,-40 -41,-40 -64,0 -129,15 -143,19 -5,-97 -10,-183 -14,-234 -4,-59 5,-104 22,-135 17,-34 44,-52 71,-58 23,-5 42,-2 62,12 25,19 51,56 81,117 62,120 95,716 97,757 0,3 0,6 1,9 6,26 14,111 23,209 9,108 17,230 22,311 -32,-7 -71,-12 -115,-15 -47,-2 -100,-2 -159,4 -22,3 -38,23 -36,45 2,22 22,38 44,36 54,-6 103,-6 147,-4 50,3 92,10 124,18l1 4c0,19 36,282 59,448 -66,-77 -121,-136 -127,-142zm-549 639c-6,-64 -3,-169 -1,-204 2,0 8,2 16,1 24,-3 58,-1 97,2 7,1 12,3 15,6 4,5 6,12 8,20 2,11 2,24 1,38 -3,39 -16,79 -27,93 -13,5 -27,11 -41,18 -20,9 -43,18 -68,26zm-137 112c-19,24 -53,49 -105,78 -5,3 -10,6 -14,8 -7,-12 -23,-48 -46,-139 -21,-83 21,-89 21,-89 4,-1 7,-2 11,-4 11,-4 76,-30 93,9 23,55 35,112 40,137zm53 -234c-5,-20 -9,-40 -11,-57 -5,-38 -23,-143 -36,-221l10 5c106,57 225,84 285,95l13 42c-15,-13 -35,-22 -59,-24 -42,-3 -81,-5 -111,-2 -43,5 -74,20 -86,52 -2,4 -3,9 -3,14 0,8 -2,48 -2,96zm-571 -607l0 0zm0 -2l0 0zm0 -1l0 0zm286 893c0,-3 -1,-5 -1,-7l-42 -139 -1 -2 -52 -169 -1 -4c0,-1 -92,-218 -116,-260 -19,-35 -70,-295 -73,-309l0 -1 0 0 0 0 0 -1 0 -1 0 0 -1 -1 0 0 0 -1 0 0 0 -1 0 0c-5,-15 -7,-31 -2,-54 6,-27 21,-64 53,-117 46,-78 210,-103 266,-110 15,21 43,73 57,188 -45,36 -102,114 -23,263 20,38 48,72 81,101 9,54 41,243 49,297 2,14 5,31 9,48 -54,-19 -118,4 -134,10 -25,6 -118,41 -81,188 10,37 19,67 27,90 -3,-1 -6,-2 -9,-2l-6 -6zm-289 -62l0 0zm12 82c-9,-9 -19,-20 -28,-31 -44,-53 -90,-127 -135,-224 -93,-200 -82,-302 -82,-302 2,-22 -15,-42 -37,-44 -23,-2 -42,15 -44,37 0,0 -3,27 5,78l-11 -7c-19,-12 -44,-8 -57,11l-2 5c5,-65 23,-137 49,-202 30,-74 69,-137 111,-169 57,-43 118,-34 147,-25 14,68 56,272 78,311 21,38 102,229 111,250l37 123c-107,23 -154,106 -154,107 -6,9 -7,21 -4,32l16 50zm92 62l-1 -3 11 -4 -35 -110c15,-17 45,-46 95,-56l24 129c-11,10 -29,26 -54,41 -10,3 -20,5 -31,4 -3,0 -6,-1 -9,-1zm380 -937c-23,-24 -19,-55 -12,-75 50,5 138,14 226,23 -3,76 -49,107 -67,119l-6 3c-2,2 -25,-6 -57,-18 -30,-12 -61,-29 -84,-52zm345 -121c-134,-12 -317,-31 -374,-37 -18,-121 -52,-185 -74,-215l4 -13c28,-90 37,-117 200,-156 156,-37 217,190 224,216 0,0 0,0 0,0l20 205z"/>
  </g>
 </g>
</svg>
