<?xml version="1.0" encoding="UTF-8"?>
<!DOCTYPE svg PUBLIC "-//W3C//DTD SVG 1.1//EN" "http://www.w3.org/Graphics/SVG/1.1/DTD/svg11.dtd">
<!-- Creator: CorelDRAW X7 -->
<svg xmlns="http://www.w3.org/2000/svg" xml:space="preserve" width="2px" height="2px" version="1.1" style="shape-rendering:geometricPrecision; text-rendering:geometricPrecision; image-rendering:optimizeQuality; fill-rule:evenodd; clip-rule:evenodd"
viewBox="0 0 14236 14236"
 xmlns:xlink="http://www.w3.org/1999/xlink">
 <defs>
  <style type="text/css">
   <![CDATA[
    .fil0 {fill:black;fill-rule:nonzero}
   ]]>
  </style>
 </defs>
 <g id="Layer_x0020_1">
  <metadata id="CorelCorpID_0Corel-Layer"/>
  <path class="fil0" d="M7118 0l0 0c1958,0 3737,801 5027,2091 1290,1290 2091,3069 2091,5027l0 0c0,1958 -801,3737 -2091,5027 -1290,1290 -3069,2091 -5027,2091l0 0c-1958,0 -3737,-801 -5027,-2091 -1290,-1290 -2091,-3069 -2091,-5027l0 0c0,-1958 801,-3737 2091,-5027 1290,-1290 3069,-2091 5027,-2091zm0 228l0 0c-1895,0 -3617,775 -4866,2024 -1249,1249 -2024,2971 -2024,4866l0 0c0,1895 775,3617 2024,4866 1249,1249 2971,2024 4866,2024l0 0c1895,0 3617,-775 4866,-2024 1249,-1249 2024,-2971 2024,-4866l0 0c0,-1895 -775,-3617 -2024,-4866 -1249,-1249 -2971,-2024 -4866,-2024zm124 7277l0 -4904 3203 3204 -2451 2452 -752 -752zm926 926l2170 -2170 -1085 3255 -1085 -1085zm-174 175l1138 1139 -1890 1890 0 -2277 752 -752zm-4203 -2801l3203 -3204 0 4904 -752 752 -2451 -2452zm1313 3940l1138 -1139 752 752 0 2277 -1890 -1890zm-1206 -3484l2170 2170 -1085 1085 -1085 -3255zm-457 -456l1340 3940 2250 2276 87 87 87 -87 2250 -2276 1340 -3940 -88 -88 -3502 -3502 -87 -87 -87 87 -3502 3502 -88 88zm3677 1925l701 701 -701 701 -701 -701 701 -701zm4491 3741l-4923 1703 -2983 -1683 -1375 -6354 2519 -4494 5659 1176 2060 6903 -957 2749zm1647 -1232l-2497 -8368 1059 220c-113,-105 -228,-207 -348,-304l-6236 -1296c-238,68 -471,149 -699,242l-3157 5633 298 -3461c-90,116 -177,234 -259,356l-575 6692c60,133 125,264 194,393l295 -3431 829 -1478 1673 7732c86,47 173,93 262,136l-328 -1517 2633 1485 -1273 440c128,39 258,74 389,106l5998 -2075 -320 920c113,-83 223,-170 331,-260l1152 -3310 426 1427c53,-93 104,-187 153,-282z"/>
 </g>
</svg>
