<?xml version="1.0" encoding="UTF-8"?>
<!DOCTYPE svg PUBLIC "-//W3C//DTD SVG 1.1//EN" "http://www.w3.org/Graphics/SVG/1.1/DTD/svg11.dtd">
<!-- Creator: CorelDRAW X7 -->
<svg xmlns="http://www.w3.org/2000/svg" xml:space="preserve" width="2px" height="2px" version="1.1" style="shape-rendering:geometricPrecision; text-rendering:geometricPrecision; image-rendering:optimizeQuality; fill-rule:evenodd; clip-rule:evenodd"
viewBox="0 0 16298 16298"
 xmlns:xlink="http://www.w3.org/1999/xlink">
 <defs>
  <style type="text/css">
   <![CDATA[
    .fil0 {fill:black;fill-rule:nonzero}
   ]]>
  </style>
 </defs>
 <g id="Layer_x0020_1">
  <metadata id="CorelCorpID_0Corel-Layer"/>
  <path class="fil0" d="M9260 6711c-18,-14 -35,-27 -53,-40l0 0 0 0c-52,-38 -107,-74 -163,-106 -136,-79 -284,-141 -440,-183 -151,-40 -310,-62 -475,-62 -164,0 -323,22 -474,62 -156,42 -304,104 -440,183 -53,31 -104,63 -152,98 -14,10 -27,20 -41,30l1127 1261 1111 -1243zm1026 -760c65,-33 129,-71 192,-108l0 -1c192,-114 379,-225 596,-225 207,0 354,99 514,208 155,106 326,222 581,222 254,0 398,-119 525,-224 132,-109 250,-206 443,-206 177,0 336,87 517,187 125,69 262,145 417,193l-5 -6 -725 -811c-3,-4 -7,-8 -10,-12l-1173 -1313 -1872 2096zm4062 356c-340,-10 -597,-152 -820,-275 -149,-82 -281,-155 -391,-155 -100,0 -183,70 -277,147 -161,133 -343,284 -691,284 -333,0 -539,-141 -727,-268 -124,-85 -239,-163 -368,-163 -146,0 -303,94 -463,189l-1 0c-198,118 -401,239 -642,242l-426 476 0 0 -1102 1235 3718 0 3719 0 -1529 -1712zm-12044 -397c39,-22 78,-45 116,-67l0 -1c192,-114 379,-225 595,-225 208,0 355,99 515,208 155,106 326,222 581,222 254,0 398,-119 525,-224 132,-109 250,-206 443,-206 177,0 336,87 517,187 139,77 293,162 470,208l-18 -21 -1908 -2136 -1186 1328c-3,4 -7,8 -10,12l-640 715zm4026 398c-361,0 -629,-148 -860,-276 -149,-82 -281,-155 -391,-155 -100,0 -184,70 -277,147 -161,133 -343,284 -691,284 -333,0 -539,-141 -727,-268 -125,-85 -239,-163 -369,-163 -145,0 -302,94 -462,189l-1 0c-187,111 -378,225 -601,240l-1530 1713 3719 0 3718 0 -1113 -1246c-2,-3 -5,-6 -7,-9 -3,-2 -5,-5 -7,-7l-401 -449zm1819 -6308l0 0c2241,0 4278,917 5755,2394 1477,1477 2394,3514 2394,5755l0 0c0,1293 -305,2518 -847,3607 -51,96 -60,111 -103,200 -383,720 -871,1376 -1444,1948 -104,105 -212,207 -322,305 -2,3 -4,5 -7,8 -2,2 -5,4 -7,6 -1443,1289 -3344,2075 -5419,2075l0 0c-2080,0 -3984,-790 -5428,-2084 -3,-2 -6,-4 -8,-7 -3,-2 -6,-5 -8,-7 -106,-96 -210,-194 -311,-296 -573,-572 -1061,-1228 -1444,-1948 -32,-54 -95,-187 -107,-208 -443,-893 -727,-1879 -814,-2918 -1,-4 -1,-8 -2,-13 -18,-220 -27,-443 -27,-668l0 0 0 -2c0,-2240 917,-4277 2394,-5753 1477,-1477 3514,-2394 5755,-2394zm-150 262c-1337,26 -2595,388 -3693,1005l2893 5011c124,-62 254,-111 389,-147 133,-36 270,-59 411,-67l0 -5802zm-3917 1136c-548,332 -1053,729 -1504,1180 -457,457 -859,970 -1194,1527l1442 832 1217 -1363c48,-54 130,-58 183,-10 4,3 7,6 11,10l2004 2244 608 680c20,-15 41,-31 62,-46 21,-15 42,-30 63,-44l-2892 -5010zm-2828 2932c-579,1037 -930,2216 -985,3469l1769 -1981 611 -683 -1395 -805zm-992 3950c2,135 8,269 17,402l7199 0 361 -402 -3699 0 -3878 0zm39 663c26,261 65,518 117,771l6139 0 688 -771 -6944 0zm175 1031c144,603 358,1180 632,1721l3677 0 1538 -1721 -5847 0zm771 1982c360,649 810,1243 1331,1764 70,70 141,138 213,205l1761 -1969 -3305 0zm1737 2143c1218,1060 2762,1754 4455,1906l554 -7508 -5009 5602zm4715 1925c149,9 299,13 450,13l0 0c144,0 288,-4 430,-11l-440 -5972 -440 5970zm1140 -17c1696,-149 3243,-840 4465,-1899l-5018 -5611 553 7510zm4658 -2072c76,-71 150,-142 223,-215 522,-521 971,-1115 1331,-1764l-3323 0 1769 1979zm1693 -2240c274,-541 488,-1118 633,-1721l-5868 0 1539 1721 3696 0zm690 -1981c52,-253 91,-510 117,-771l-6964 0 689 771 6158 0zm139 -1032c9,-133 15,-267 17,-402l-3878 0 -3718 0 360 402 7219 0zm10 -883c-55,-1259 -410,-2445 -994,-3486l-1399 807 624 698 1769 1981zm-1125 -3711c-333,-550 -731,-1057 -1184,-1510 -459,-459 -974,-862 -1533,-1197l-2902 5027c25,17 51,35 76,53l-1 0c25,19 50,37 73,56l624 -699 2005 -2244c47,-54 130,-58 183,-10 4,3 7,6 10,10l1204 1348 1445 -834zm-2942 -2837c-1101,-614 -2363,-971 -3702,-989l0 5802c141,8 278,31 411,67 135,36 265,86 389,147l2902 -5027z"/>
 </g>
</svg>
