<?xml version="1.0" encoding="UTF-8"?>
<!DOCTYPE svg PUBLIC "-//W3C//DTD SVG 1.1//EN" "http://www.w3.org/Graphics/SVG/1.1/DTD/svg11.dtd">
<!-- Creator: CorelDRAW X7 -->
<svg xmlns="http://www.w3.org/2000/svg" xml:space="preserve" width="5px" height="5px" version="1.1" style="shape-rendering:geometricPrecision; text-rendering:geometricPrecision; image-rendering:optimizeQuality; fill-rule:evenodd; clip-rule:evenodd"
viewBox="0 0 50422 50422"
 xmlns:xlink="http://www.w3.org/1999/xlink">
 <defs>
  <style type="text/css">
   <![CDATA[
    .str0 {stroke:black;stroke-width:931.15}
    .fil0 {fill:black}
    .fil1 {fill:white;fill-rule:nonzero}
   ]]>
  </style>
 </defs>
 <g id="Layer_x0020_1">
  <metadata id="CorelCorpID_0Corel-Layer"/>
  <circle class="fil0 str0" cx="25211" cy="25211" r="24745"/>
  <path class="fil1" d="M25676 33652l0 8582 7125 -7125 -4291 -4291 -2834 2834zm-136 -26917l13198 13198 329 329 -5048 14847 -8479 8578 -329 329 -329 -329 -8479 -8578 -5048 -14847 329 -329 13198 -13198 329 -329 329 329zm11806 15247l-8177 8178 4088 4089 4089 -12267zm-16093 8178l-8178 -8178 4089 12267 4089 -4089zm16497 -9898l-12074 -12074 0 18480 2834 2834 9240 -9240zm-13005 -12074l-12073 12074 9240 9240 2833 -2834 0 -18480zm0 34046l0 -8582 -2833 -2834 -4291 4291 7124 7125zm3107 -12074l-2641 -2641 -2641 2641 2641 2641 2641 -2641z"/>
 </g>
</svg>
