<?xml version="1.0" encoding="UTF-8"?>
<!DOCTYPE svg PUBLIC "-//W3C//DTD SVG 1.1//EN" "http://www.w3.org/Graphics/SVG/1.1/DTD/svg11.dtd">
<!-- Creator: CorelDRAW X7 -->
<svg xmlns="http://www.w3.org/2000/svg" xml:space="preserve" width="32px" height="5px" version="1.1" style="shape-rendering:geometricPrecision; text-rendering:geometricPrecision; image-rendering:optimizeQuality; fill-rule:evenodd; clip-rule:evenodd"
viewBox="0 0 324061 50853"
 xmlns:xlink="http://www.w3.org/1999/xlink">
 <defs>
  <style type="text/css">
   <![CDATA[
    .fil0 {fill:black}
   ]]>
  </style>
 </defs>
 <g id="Layer_x0020_1">
  <metadata id="CorelCorpID_0Corel-Layer"/>
  <path class="fil0" d="M35118 33354c0,8070 -3529,13327 -10598,15770 -2467,871 -5113,1300 -7951,1300 -5960,0 -11479,-1800 -16569,-5400l5293 -9978c3719,3386 7355,5078 10919,5078 1597,0 2968,-381 4077,-1132 1299,-846 1955,-2050 1955,-3612 0,-1418 -716,-2599 -2158,-3540 -1073,-704 -2885,-1431 -5412,-2158 -3075,-906 -5007,-1538 -5793,-1883 -1264,-537 -2337,-1169 -3219,-1884 -2539,-2098 -3802,-5269 -3802,-9500 0,-4423 1311,-8083 3945,-11003 3064,-3421 7164,-5126 12278,-5126 5138,0 10168,1287 15104,3874l-4936 9644c-2705,-2146 -5423,-3218 -8177,-3218 -1323,0 -2515,345 -3564,1025 -1180,774 -1776,1800 -1776,3099 0,1264 775,2360 2336,3278 703,417 2789,1144 6282,2181 4375,1288 7498,3100 9358,5460 1609,2003 2408,4577 2408,7725zm288943 -31924l-17880 24783 0 22923 -12374 0 0 -22923 -17237 -24783 14793 0 9000 13089 8666 -13089 15032 0zm-51964 47706l-27107 0 0 -47706 27107 0 0 10300 -14733 0 0 8225 13946 0 0 10299 -13946 0 0 8583 14733 0 0 10299zm-32400 0l-15377 0 -11801 -18238 0 18238 -12374 0 0 -47706 19264 0c5638,0 9798,1693 12504,5079 2182,2729 3278,5936 3278,9619 0,4232 -1251,7606 -3767,10121 -1609,1609 -3826,2730 -6639,3362l14912 19525zm-17380 -32316c0,-1705 -619,-3135 -1859,-4303 -1157,-1097 -3040,-1645 -5627,-1645l-2312 0 0 11944 2312 0c2611,0 4494,-548 5627,-1645 1240,-1192 1859,-2647 1859,-4351zm-30099 8439c0,4971 -1490,9561 -4482,13793 -2992,4231 -6806,7164 -11467,8797 -2468,858 -4971,1287 -7534,1287l-18286 0 0 -47706 18286 0c4470,0 8607,1252 12421,3744 3743,2419 6616,5662 8619,9715 1633,3349 2443,6806 2443,10370zm-12874 0c0,-3302 -918,-6186 -2754,-8642 -2455,-3254 -6091,-4887 -10942,-4887l-2826 0 0 27107 2826 0c4875,0 8511,-1633 10942,-4887 1836,-2480 2754,-5377 2754,-8691zm-36751 179c0,6485 -2157,12171 -6461,17059 -4911,5566 -11562,8356 -19942,8356 -8368,0 -15008,-2790 -19919,-8356 -4304,-4888 -6461,-10574 -6461,-17059 0,-2956 584,-5984 1752,-9095 1156,-3111 2718,-5781 4673,-7987 4911,-5567 11563,-8356 19955,-8356 8380,0 15031,2789 19942,8356 4304,4888 6461,10586 6461,17082zm-12874 0c0,-3361 -1072,-6270 -3218,-8726 -2754,-3134 -6187,-4696 -10311,-4696 -2849,0 -5424,799 -7737,2396 -2300,1609 -3945,3743 -4935,6401 -560,1526 -834,3064 -834,4625 0,3231 1073,6116 3218,8667 2658,3159 6080,4732 10288,4732 4196,0 7629,-1561 10311,-4697 2146,-2503 3218,-5400 3218,-8702zm-41436 23698l-13232 0 -3075 -8296 -17106 0 -3278 8296 -13089 0 18322 -47706 13518 0 17940 47706zm-19597 -17737l-5186 -15235 -5257 15235 10443 0z"/>
 </g>
</svg>
